<svg xmlns="http://www.w3.org/2000/svg" viewBox="0 0 1280 800" width="1280" height="800">
  <rect width="1280" height="800" fill="#0e0c0b"/>
  <!-- Top nav -->
  <rect width="1280" height="64" fill="rgba(14,12,11,0.96)" stroke="#2e2924" stroke-width="1"/>
  <circle cx="36" cy="32" r="18" fill="#0e0c0b" stroke="#c8973f" stroke-width="2"/>
  <circle cx="36" cy="32" r="5" fill="#c8973f"/>
  <text x="62" y="38" font-family="Arial,sans-serif" font-weight="700" font-size="18" fill="#c8973f">VinylVault Pro</text>
  <text x="500" y="38" font-family="Arial,sans-serif" font-size="14" fill="#9a8678">New Listing</text>
  <text x="620" y="38" font-family="Arial,sans-serif" font-size="14" fill="#c8973f">Deals</text>
  <text x="720" y="38" font-family="Arial,sans-serif" font-size="14" fill="#9a8678">Collection</text>
  <text x="840" y="38" font-family="Arial,sans-serif" font-size="14" fill="#9a8678">Settings</text>
  <!-- Deal cards grid -->
  <text x="64" y="110" font-family="Arial,sans-serif" font-weight="700" font-size="28" fill="#c8973f">Deal Finder</text>
  <text x="64" y="138" font-family="Arial,sans-serif" font-size="14" fill="#9a8678">Automated arbitrage scanning across eBay vinyl listings</text>
  <!-- Card 1 -->
  <rect x="64" y="160" width="280" height="180" rx="12" fill="#1a1613" stroke="#2e2924"/>
  <text x="84" y="194" font-family="Arial,sans-serif" font-weight="600" font-size="14" fill="#f5ede2">Dark Side of the Moon</text>
  <text x="84" y="214" font-family="Arial,sans-serif" font-size="12" fill="#9a8678">Pink Floyd • 1973 UK</text>
  <rect x="84" y="230" width="80" height="24" rx="6" fill="#4ade80" opacity="0.2"/>
  <text x="94" y="246" font-family="Arial,sans-serif" font-size="11" fill="#4ade80">+£42 profit</text>
  <text x="84" y="274" font-family="Arial,sans-serif" font-size="12" fill="#9a8678">Buy: £58 → Sell: £100</text>
  <rect x="84" y="295" width="240" height="34" rx="8" fill="#c8973f"/>
  <text x="148" y="317" font-family="Arial,sans-serif" font-weight="600" font-size="13" fill="#0e0c0b">View Deal</text>
  <!-- Card 2 -->
  <rect x="364" y="160" width="280" height="180" rx="12" fill="#1a1613" stroke="#2e2924"/>
  <text x="384" y="194" font-family="Arial,sans-serif" font-weight="600" font-size="14" fill="#f5ede2">Rumours</text>
  <text x="384" y="214" font-family="Arial,sans-serif" font-size="12" fill="#9a8678">Fleetwood Mac • 1977 US</text>
  <rect x="384" y="230" width="80" height="24" rx="6" fill="#4ade80" opacity="0.2"/>
  <text x="394" y="246" font-family="Arial,sans-serif" font-size="11" fill="#4ade80">+£28 profit</text>
  <text x="384" y="274" font-family="Arial,sans-serif" font-size="12" fill="#9a8678">Buy: £22 → Sell: £50</text>
  <rect x="384" y="295" width="240" height="34" rx="8" fill="#c8973f"/>
  <text x="448" y="317" font-family="Arial,sans-serif" font-weight="600" font-size="13" fill="#0e0c0b">View Deal</text>
  <!-- Card 3 -->
  <rect x="664" y="160" width="280" height="180" rx="12" fill="#1a1613" stroke="#2e2924"/>
  <text x="684" y="194" font-family="Arial,sans-serif" font-weight="600" font-size="14" fill="#f5ede2">Kind of Blue</text>
  <text x="684" y="214" font-family="Arial,sans-serif" font-size="12" fill="#9a8678">Miles Davis • 1959 US</text>
  <rect x="684" y="230" width="80" height="24" rx="6" fill="#4ade80" opacity="0.2"/>
  <text x="694" y="246" font-family="Arial,sans-serif" font-size="11" fill="#4ade80">+£65 profit</text>
  <text x="684" y="274" font-family="Arial,sans-serif" font-size="12" fill="#9a8678">Buy: £85 → Sell: £150</text>
  <rect x="684" y="295" width="240" height="34" rx="8" fill="#c8973f"/>
  <text x="748" y="317" font-family="Arial,sans-serif" font-weight="600" font-size="13" fill="#0e0c0b">View Deal</text>
  <!-- Stats row -->
  <rect x="64" y="370" width="280" height="80" rx="12" fill="#1a1613" stroke="#2e2924"/>
  <text x="84" y="404" font-family="Arial,sans-serif" font-size="12" fill="#9a8678">Deals Found Today</text>
  <text x="84" y="428" font-family="Arial,sans-serif" font-weight="700" font-size="24" fill="#c8973f">47</text>
  <rect x="364" y="370" width="280" height="80" rx="12" fill="#1a1613" stroke="#2e2924"/>
  <text x="384" y="404" font-family="Arial,sans-serif" font-size="12" fill="#9a8678">Avg. Profit Margin</text>
  <text x="384" y="428" font-family="Arial,sans-serif" font-weight="700" font-size="24" fill="#4ade80">£38.50</text>
  <rect x="664" y="370" width="280" height="80" rx="12" fill="#1a1613" stroke="#2e2924"/>
  <text x="684" y="404" font-family="Arial,sans-serif" font-size="12" fill="#9a8678">Total Scanned</text>
  <text x="684" y="428" font-family="Arial,sans-serif" font-weight="700" font-size="24" fill="#f5ede2">2,847</text>
</svg>
